<svg width="67" height="12" viewBox="0 0 67 12" fill="none" xmlns="http://www.w3.org/2000/svg">
<g clip-path="url(#clip0_1_819)">
<g clip-path="url(#clip1_1_819)">
<path d="M6.292 0.524892C6.23333 0.407558 6.149 0.314058 6.039 0.244391C5.929 0.174725 5.808 0.139892 5.676 0.139892C5.544 0.139892 5.42116 0.174725 5.3075 0.244391C5.19383 0.314058 5.10766 0.407558 5.049 0.524892L3.674 3.37389L0.582997 3.82489C0.45833 3.83956 0.344664 3.88906 0.241997 3.97339C0.13933 4.05772 0.0696636 4.16222 0.032997 4.28689C-0.00366971 4.41156 -0.00733637 4.53806 0.021997 4.66639C0.0513303 4.79472 0.113664 4.90289 0.208997 4.99089L2.442 7.21289L1.914 10.3369C1.892 10.4689 1.90666 10.5936 1.958 10.7109C2.00933 10.8282 2.08633 10.9272 2.189 11.0079C2.29166 11.0886 2.409 11.1326 2.541 11.1399C2.673 11.1472 2.79766 11.1216 2.915 11.0629L5.676 9.58889L8.437 11.0629C8.55433 11.1216 8.67716 11.1472 8.8055 11.1399C8.93383 11.1326 9.053 11.0904 9.163 11.0134C9.273 10.9364 9.35183 10.8374 9.3995 10.7164C9.44716 10.5954 9.46 10.4689 9.438 10.3369L8.899 7.21289L11.143 4.99089C11.2383 4.90289 11.3007 4.79472 11.33 4.66639C11.3593 4.53806 11.352 4.41156 11.308 4.28689C11.264 4.16222 11.1943 4.05772 11.099 3.97339C11.0037 3.88906 10.89 3.83956 10.758 3.82489L7.678 3.37389L6.292 0.524892Z" fill="#D1D5DB"/>
<path d="M19.667 0.524892C19.6083 0.407558 19.524 0.314058 19.414 0.244391C19.304 0.174725 19.183 0.139892 19.051 0.139892C18.919 0.139892 18.7962 0.174725 18.6825 0.244391C18.5688 0.314058 18.4827 0.407558 18.424 0.524892L17.049 3.37389L13.958 3.82489C13.8333 3.83956 13.7197 3.88906 13.617 3.97339C13.5143 4.05772 13.4447 4.16222 13.408 4.28689C13.3713 4.41156 13.3677 4.53806 13.397 4.66639C13.4263 4.79472 13.4887 4.90289 13.584 4.99089L15.817 7.21289L15.289 10.3369C15.267 10.4689 15.2817 10.5936 15.333 10.7109C15.3843 10.8282 15.4613 10.9272 15.564 11.0079C15.6667 11.0886 15.784 11.1326 15.916 11.1399C16.048 11.1472 16.1727 11.1216 16.29 11.0629L19.051 9.58889L21.812 11.0629C21.9293 11.1216 22.0522 11.1472 22.1805 11.1399C22.3088 11.1326 22.428 11.0904 22.538 11.0134C22.648 10.9364 22.7268 10.8374 22.7745 10.7164C22.8222 10.5954 22.835 10.4689 22.813 10.3369L22.274 7.21289L24.518 4.99089C24.6133 4.90289 24.6757 4.79472 24.705 4.66639C24.7343 4.53806 24.727 4.41156 24.683 4.28689C24.639 4.16222 24.5693 4.05772 24.474 3.97339C24.3787 3.88906 24.265 3.83956 24.133 3.82489L21.053 3.37389L19.667 0.524892Z" fill="#D1D5DB"/>
<path d="M33.042 0.524892C32.9833 0.407558 32.899 0.314058 32.789 0.244391C32.679 0.174725 32.558 0.139892 32.426 0.139892C32.294 0.139892 32.1712 0.174725 32.0575 0.244391C31.9438 0.314058 31.8577 0.407558 31.799 0.524892L30.424 3.37389L27.333 3.82489C27.2083 3.83956 27.0947 3.88906 26.992 3.97339C26.8893 4.05772 26.8197 4.16222 26.783 4.28689C26.7463 4.41156 26.7427 4.53806 26.772 4.66639C26.8013 4.79472 26.8637 4.90289 26.959 4.99089L29.192 7.21289L28.664 10.3369C28.642 10.4689 28.6567 10.5936 28.708 10.7109C28.7593 10.8282 28.8363 10.9272 28.939 11.0079C29.0417 11.0886 29.159 11.1326 29.291 11.1399C29.423 11.1472 29.5477 11.1216 29.665 11.0629L32.426 9.58889L35.187 11.0629C35.3043 11.1216 35.4272 11.1472 35.5555 11.1399C35.6838 11.1326 35.803 11.0904 35.913 11.0134C36.023 10.9364 36.1018 10.8374 36.1495 10.7164C36.1972 10.5954 36.21 10.4689 36.188 10.3369L35.649 7.21289L37.893 4.99089C37.9883 4.90289 38.0507 4.79472 38.08 4.66639C38.1093 4.53806 38.102 4.41156 38.058 4.28689C38.014 4.16222 37.9443 4.05772 37.849 3.97339C37.7537 3.88906 37.64 3.83956 37.508 3.82489L34.428 3.37389L33.042 0.524892Z" fill="#D1D5DB"/>
<path d="M46.417 0.524892C46.3583 0.407558 46.274 0.314058 46.164 0.244391C46.054 0.174725 45.933 0.139892 45.801 0.139892C45.669 0.139892 45.5462 0.174725 45.4325 0.244391C45.3188 0.314058 45.2327 0.407558 45.174 0.524892L43.799 3.37389L40.708 3.82489C40.5833 3.83956 40.4697 3.88906 40.367 3.97339C40.2643 4.05772 40.1947 4.16222 40.158 4.28689C40.1213 4.41156 40.1177 4.53806 40.147 4.66639C40.1763 4.79472 40.2387 4.90289 40.334 4.99089L42.567 7.21289L42.039 10.3369C42.017 10.4689 42.0317 10.5936 42.083 10.7109C42.1343 10.8282 42.2113 10.9272 42.314 11.0079C42.4167 11.0886 42.534 11.1326 42.666 11.1399C42.798 11.1472 42.9227 11.1216 43.04 11.0629L45.801 9.58889L48.562 11.0629C48.6793 11.1216 48.8022 11.1472 48.9305 11.1399C49.0588 11.1326 49.178 11.0904 49.288 11.0134C49.398 10.9364 49.4768 10.8374 49.5245 10.7164C49.5722 10.5954 49.585 10.4689 49.563 10.3369L49.024 7.21289L51.268 4.99089C51.3633 4.90289 51.4257 4.79472 51.455 4.66639C51.4843 4.53806 51.477 4.41156 51.433 4.28689C51.389 4.16222 51.3193 4.05772 51.224 3.97339C51.1287 3.88906 51.015 3.83956 50.883 3.82489L47.803 3.37389L46.417 0.524892Z" fill="#D1D5DB"/>
<path d="M59.792 0.524892C59.7333 0.407558 59.649 0.314058 59.539 0.244391C59.429 0.174725 59.308 0.139892 59.176 0.139892C59.044 0.139892 58.9212 0.174725 58.8075 0.244391C58.6938 0.314058 58.6077 0.407558 58.549 0.524892L57.174 3.37389L54.083 3.82489C53.9583 3.83956 53.8447 3.88906 53.742 3.97339C53.6393 4.05772 53.5697 4.16222 53.533 4.28689C53.4963 4.41156 53.4927 4.53806 53.522 4.66639C53.5513 4.79472 53.6137 4.90289 53.709 4.99089L55.942 7.21289L55.414 10.3369C55.392 10.4689 55.4067 10.5936 55.458 10.7109C55.5093 10.8282 55.5863 10.9272 55.689 11.0079C55.7917 11.0886 55.909 11.1326 56.041 11.1399C56.173 11.1472 56.2977 11.1216 56.415 11.0629L59.176 9.58889L61.937 11.0629C62.0543 11.1216 62.1772 11.1472 62.3055 11.1399C62.4338 11.1326 62.553 11.0904 62.663 11.0134C62.773 10.9364 62.8518 10.8374 62.8995 10.7164C62.9472 10.5954 62.96 10.4689 62.938 10.3369L62.399 7.21289L64.643 4.99089C64.7383 4.90289 64.8007 4.79472 64.83 4.66639C64.8593 4.53806 64.852 4.41156 64.808 4.28689C64.764 4.16222 64.6943 4.05772 64.599 3.97339C64.5037 3.88906 64.39 3.83956 64.258 3.82489L61.178 3.37389L59.792 0.524892Z" fill="#D1D5DB"/>
</g>
<g clip-path="url(#clip2_1_819)">
<g clip-path="url(#clip3_1_819)">
<path d="M6.292 0.524892C6.23333 0.407558 6.149 0.314058 6.039 0.244391C5.929 0.174725 5.808 0.139892 5.676 0.139892C5.544 0.139892 5.42116 0.174725 5.3075 0.244391C5.19383 0.314058 5.10766 0.407558 5.049 0.524892L3.674 3.37389L0.582997 3.82489C0.45833 3.83956 0.344664 3.88906 0.241997 3.97339C0.13933 4.05772 0.0696636 4.16222 0.032997 4.28689C-0.00366971 4.41156 -0.00733637 4.53806 0.021997 4.66639C0.0513303 4.79472 0.113664 4.90289 0.208997 4.99089L2.442 7.21289L1.914 10.3369C1.892 10.4689 1.90666 10.5936 1.958 10.7109C2.00933 10.8282 2.08633 10.9272 2.189 11.0079C2.29166 11.0886 2.409 11.1326 2.541 11.1399C2.673 11.1472 2.79766 11.1216 2.915 11.0629L5.676 9.58889L8.437 11.0629C8.55433 11.1216 8.67716 11.1472 8.8055 11.1399C8.93383 11.1326 9.053 11.0904 9.163 11.0134C9.273 10.9364 9.35183 10.8374 9.3995 10.7164C9.44716 10.5954 9.46 10.4689 9.438 10.3369L8.899 7.21289L11.143 4.99089C11.2383 4.90289 11.3007 4.79472 11.33 4.66639C11.3593 4.53806 11.352 4.41156 11.308 4.28689C11.264 4.16222 11.1943 4.05772 11.099 3.97339C11.0037 3.88906 10.89 3.83956 10.758 3.82489L7.678 3.37389L6.292 0.524892Z" fill="#FACC15"/>
<path d="M19.667 0.524892C19.6083 0.407558 19.524 0.314058 19.414 0.244391C19.304 0.174725 19.183 0.139892 19.051 0.139892C18.919 0.139892 18.7962 0.174725 18.6825 0.244391C18.5688 0.314058 18.4827 0.407558 18.424 0.524892L17.049 3.37389L13.958 3.82489C13.8333 3.83956 13.7197 3.88906 13.617 3.97339C13.5143 4.05772 13.4447 4.16222 13.408 4.28689C13.3713 4.41156 13.3677 4.53806 13.397 4.66639C13.4263 4.79472 13.4887 4.90289 13.584 4.99089L15.817 7.21289L15.289 10.3369C15.267 10.4689 15.2817 10.5936 15.333 10.7109C15.3843 10.8282 15.4613 10.9272 15.564 11.0079C15.6667 11.0886 15.784 11.1326 15.916 11.1399C16.048 11.1472 16.1727 11.1216 16.29 11.0629L19.051 9.58889L21.812 11.0629C21.9293 11.1216 22.0522 11.1472 22.1805 11.1399C22.3088 11.1326 22.428 11.0904 22.538 11.0134C22.648 10.9364 22.7268 10.8374 22.7745 10.7164C22.8222 10.5954 22.835 10.4689 22.813 10.3369L22.274 7.21289L24.518 4.99089C24.6133 4.90289 24.6757 4.79472 24.705 4.66639C24.7343 4.53806 24.727 4.41156 24.683 4.28689C24.639 4.16222 24.5693 4.05772 24.474 3.97339C24.3787 3.88906 24.265 3.83956 24.133 3.82489L21.053 3.37389L19.667 0.524892Z" fill="#FACC15"/>
<path d="M33.042 0.524892C32.9833 0.407558 32.899 0.314058 32.789 0.244391C32.679 0.174725 32.558 0.139892 32.426 0.139892C32.294 0.139892 32.1712 0.174725 32.0575 0.244391C31.9438 0.314058 31.8577 0.407558 31.799 0.524892L30.424 3.37389L27.333 3.82489C27.2083 3.83956 27.0947 3.88906 26.992 3.97339C26.8893 4.05772 26.8197 4.16222 26.783 4.28689C26.7463 4.41156 26.7427 4.53806 26.772 4.66639C26.8013 4.79472 26.8637 4.90289 26.959 4.99089L29.192 7.21289L28.664 10.3369C28.642 10.4689 28.6567 10.5936 28.708 10.7109C28.7593 10.8282 28.8363 10.9272 28.939 11.0079C29.0417 11.0886 29.159 11.1326 29.291 11.1399C29.423 11.1472 29.5477 11.1216 29.665 11.0629L32.426 9.58889L35.187 11.0629C35.3043 11.1216 35.4272 11.1472 35.5555 11.1399C35.6838 11.1326 35.803 11.0904 35.913 11.0134C36.023 10.9364 36.1018 10.8374 36.1495 10.7164C36.1972 10.5954 36.21 10.4689 36.188 10.3369L35.649 7.21289L37.893 4.99089C37.9883 4.90289 38.0507 4.79472 38.08 4.66639C38.1093 4.53806 38.102 4.41156 38.058 4.28689C38.014 4.16222 37.9443 4.05772 37.849 3.97339C37.7537 3.88906 37.64 3.83956 37.508 3.82489L34.428 3.37389L33.042 0.524892Z" fill="#FACC15"/>
<path d="M46.417 0.524892C46.3583 0.407558 46.274 0.314058 46.164 0.244391C46.054 0.174725 45.933 0.139892 45.801 0.139892C45.669 0.139892 45.5462 0.174725 45.4325 0.244391C45.3188 0.314058 45.2327 0.407558 45.174 0.524892L43.799 3.37389L40.708 3.82489C40.5833 3.83956 40.4697 3.88906 40.367 3.97339C40.2643 4.05772 40.1947 4.16222 40.158 4.28689C40.1213 4.41156 40.1177 4.53806 40.147 4.66639C40.1763 4.79472 40.2387 4.90289 40.334 4.99089L42.567 7.21289L42.039 10.3369C42.017 10.4689 42.0317 10.5936 42.083 10.7109C42.1343 10.8282 42.2113 10.9272 42.314 11.0079C42.4167 11.0886 42.534 11.1326 42.666 11.1399C42.798 11.1472 42.9227 11.1216 43.04 11.0629L45.801 9.58889L48.562 11.0629C48.6793 11.1216 48.8022 11.1472 48.9305 11.1399C49.0588 11.1326 49.178 11.0904 49.288 11.0134C49.398 10.9364 49.4768 10.8374 49.5245 10.7164C49.5722 10.5954 49.585 10.4689 49.563 10.3369L49.024 7.21289L51.268 4.99089C51.3633 4.90289 51.4257 4.79472 51.455 4.66639C51.4843 4.53806 51.477 4.41156 51.433 4.28689C51.389 4.16222 51.3193 4.05772 51.224 3.97339C51.1287 3.88906 51.015 3.83956 50.883 3.82489L47.803 3.37389L46.417 0.524892Z" fill="#FACC15"/>
<path d="M59.792 0.524892C59.7333 0.407558 59.649 0.314058 59.539 0.244391C59.429 0.174725 59.308 0.139892 59.176 0.139892C59.044 0.139892 58.9212 0.174725 58.8075 0.244391C58.6938 0.314058 58.6077 0.407558 58.549 0.524892L57.174 3.37389L54.083 3.82489C53.9583 3.83956 53.8447 3.88906 53.742 3.97339C53.6393 4.05772 53.5697 4.16222 53.533 4.28689C53.4963 4.41156 53.4927 4.53806 53.522 4.66639C53.5513 4.79472 53.6137 4.90289 53.709 4.99089L55.942 7.21289L55.414 10.3369C55.392 10.4689 55.4067 10.5936 55.458 10.7109C55.5093 10.8282 55.5863 10.9272 55.689 11.0079C55.7917 11.0886 55.909 11.1326 56.041 11.1399C56.173 11.1472 56.2977 11.1216 56.415 11.0629L59.176 9.58889L61.937 11.0629C62.0543 11.1216 62.1772 11.1472 62.3055 11.1399C62.4338 11.1326 62.553 11.0904 62.663 11.0134C62.773 10.9364 62.8518 10.8374 62.8995 10.7164C62.9472 10.5954 62.96 10.4689 62.938 10.3369L62.399 7.21289L64.643 4.99089C64.7383 4.90289 64.8007 4.79472 64.83 4.66639C64.8593 4.53806 64.852 4.41156 64.808 4.28689C64.764 4.16222 64.6943 4.05772 64.599 3.97339C64.5037 3.88906 64.39 3.83956 64.258 3.82489L61.178 3.37389L59.792 0.524892Z" fill="#FACC15"/>
</g>
</g>
</g>
<defs>
<clipPath id="clip0_1_819">
<rect width="66.88" height="11" fill="white" transform="translate(0 0.139893)"/>
</clipPath>
<clipPath id="clip1_1_819">
<rect width="66.88" height="11" fill="white" transform="matrix(1 0 0 -1 0 11.1399)"/>
</clipPath>
<clipPath id="clip2_1_819">
<rect width="60.19" height="11" fill="white" transform="translate(0 0.139893)"/>
</clipPath>
<clipPath id="clip3_1_819">
<rect width="66.88" height="11" fill="white" transform="matrix(1 0 0 -1 0 11.1399)"/>
</clipPath>
</defs>
</svg>
