<svg width="26" height="26" viewBox="0 0 26 26" fill="none" xmlns="http://www.w3.org/2000/svg">
<path d="M22.1822 3.25H1.07016C0.810156 3.28467 0.59349 3.406 0.420156 3.614C0.246823 3.822 0.160156 4.056 0.160156 4.316C0.160156 4.576 0.246823 4.81433 0.420156 5.031C0.59349 5.24767 0.810156 5.37333 1.07016 5.408H5.25616L4.50216 15.002V15.184C4.50216 15.7733 4.71449 16.2803 5.13916 16.705C5.56382 17.1297 6.07082 17.342 6.66016 17.342H19.9462C20.4662 17.342 20.9212 17.1817 21.3112 16.861C21.7012 16.5403 21.9482 16.146 22.0522 15.678L24.2882 5.902C24.3228 5.694 24.3402 5.52933 24.3402 5.408C24.3402 4.80133 24.1322 4.29 23.7162 3.874C23.3002 3.458 22.7888 3.25 22.1822 3.25ZM19.9462 15.158H6.66016L7.41416 5.408H22.1822L19.9462 15.158ZM8.66216 22.75C9.26882 22.75 9.78449 22.5377 10.2092 22.113C10.6338 21.6883 10.8462 21.1727 10.8462 20.566C10.8462 19.9593 10.6338 19.448 10.2092 19.032C9.78449 18.616 9.26882 18.408 8.66216 18.408C8.07282 18.408 7.56582 18.616 7.14116 19.032C6.71649 19.448 6.50416 19.9593 6.50416 20.566C6.50416 21.1727 6.71649 21.6883 7.14116 22.113C7.56582 22.5377 8.07282 22.75 8.66216 22.75ZM18.4122 22.75C19.0188 22.75 19.5345 22.5377 19.9592 22.113C20.3838 21.6883 20.5962 21.1727 20.5962 20.566C20.5962 19.9593 20.3838 19.448 19.9592 19.032C19.5345 18.616 19.0188 18.408 18.4122 18.408C17.8228 18.408 17.3158 18.616 16.8912 19.032C16.4665 19.448 16.2542 19.9593 16.2542 20.566C16.2542 21.1727 16.4665 21.6883 16.8912 22.113C17.3158 22.5377 17.8228 22.75 18.4122 22.75Z" fill="#030712"/>
</svg>
