<svg width="45" height="40" viewBox="0 0 45 40" fill="none" xmlns="http://www.w3.org/2000/svg">
<path d="M22.3585 39.3662C31.1714 39.3662 38.3156 32.222 38.3156 23.4091V11.4488C38.3156 7.89234 35.4691 5.00935 31.9577 5.00935H12.7593C9.24787 5.00935 6.40137 7.89234 6.40137 11.4488V23.4091C6.40137 32.222 13.5456 39.3662 22.3585 39.3662Z" fill="#634C9F"/>
<path d="M15.0297 24.1017C15.3622 25.6169 16.3595 27.6371 17.5231 27.9738C24.2067 30.2817 31.3068 30.1995 38.316 30.2967V11.4488C38.316 7.89234 35.4695 5.00934 31.9581 5.00934H12.7597C10.8632 5.00934 9.16184 5.85131 7.99707 7.18506C13.5011 10.5777 13.3099 18.084 15.0297 24.1017Z" fill="#FACC15"/>
<path d="M36.7976 31.2336C36.6699 31.2336 36.5415 31.2284 36.4123 31.2178L20.0381 29.864C17.5265 29.6562 15.4061 27.859 14.7617 25.3918L11.5694 13.1709C11.0034 10.9979 10.4179 8.75115 7.9167 8.07047L0.79662 6.5879C0.257208 6.4756 -0.090377 5.94156 0.0206638 5.39507C0.131538 4.84857 0.659649 4.4967 1.1984 4.60899L8.39926 6.10992C12.0463 7.08203 12.8854 10.3034 13.4982 12.6556L13.5391 12.8128L16.6901 24.8751C17.1188 26.5165 18.5294 27.712 20.2003 27.8504L36.5747 29.2042C37.8766 29.3119 39.0729 28.4644 39.4202 27.1896L42.4368 16.1147L21.5278 14.375C21.0755 14.3378 20.6488 14.5168 20.3559 14.8672C20.063 15.2177 19.9588 15.6738 20.07 16.1189L21.0032 19.857C21.3117 21.0924 22.36 22.0083 23.612 22.1361L33.4695 23.1422C33.9729 23.1936 34.4327 22.89 34.5906 22.4046C34.6927 22.0901 34.6486 21.7509 34.4694 21.4739C34.29 21.197 34.0005 21.0205 33.6748 20.9901L25.3966 20.2146C24.8483 20.1633 24.4448 19.6713 24.4955 19.1157C24.5462 18.5603 25.0293 18.1514 25.5805 18.2029L33.8587 18.9783C34.7927 19.0659 35.6234 19.5718 36.1377 20.3665C36.6518 21.161 36.7785 22.1344 36.4851 23.0367C36.0321 24.4295 34.7081 25.2996 33.2696 25.1523L23.412 24.1462C21.328 23.9335 19.5828 22.4088 19.0693 20.3523L18.1361 16.6142C17.865 15.5288 18.1193 14.4163 18.8336 13.5619C19.5479 12.7073 20.5893 12.2704 21.6911 12.3615L45 14.3008L41.3431 27.7268C40.7758 29.8093 38.9001 31.2334 36.7976 31.2336Z" fill="#634C9F"/>
<path d="M22.3697 33.7221C22.3697 35.2409 21.154 36.4721 19.6545 36.4721C18.1551 36.4721 16.9395 35.2409 16.9395 33.7221C16.9395 32.2033 18.1551 30.9723 19.6545 30.9723C21.154 30.9723 22.3697 32.2033 22.3697 33.7221Z" fill="#DC2626"/>
<path d="M35.8676 34.558C35.8676 35.4758 35.1332 36.2196 34.2273 36.2196C33.3213 36.2196 32.5869 35.4758 32.5869 34.558C32.5869 33.6405 33.3213 32.8967 34.2273 32.8967C35.1332 32.8967 35.8676 33.6405 35.8676 34.558Z" fill="#DC2626"/>
<path d="M19.5172 9.28602C19.5172 10.6188 18.4505 11.6991 17.1347 11.6991C15.8188 11.6991 14.752 10.6188 14.752 9.28602C14.752 7.95329 15.8188 6.87275 17.1347 6.87275C18.4505 6.87275 19.5172 7.95329 19.5172 9.28602Z" fill="#F25321"/>
<path d="M23.9355 3.50557C23.9355 5.30719 22.4936 6.76754 20.7148 6.76754C18.9362 6.76754 17.4941 5.30719 17.4941 3.50557C17.4941 1.70412 18.9362 0.243595 20.7148 0.243595C22.4936 0.243595 23.9355 1.70412 23.9355 3.50557Z" fill="#634C9F"/>
<path d="M23.1548 8.48161C23.1548 9.11178 22.6504 9.62275 22.0281 9.62275C21.4059 9.62275 20.9014 9.11178 20.9014 8.48161C20.9014 7.85143 21.4059 7.34046 22.0281 7.34046C22.6504 7.34046 23.1548 7.85143 23.1548 8.48161Z" fill="#634C9F"/>
<path d="M30.1479 5.1612C30.1479 6.61785 28.9818 7.79873 27.5436 7.79873C26.1052 7.79873 24.9395 6.61785 24.9395 5.1612C24.9395 3.70439 26.1052 2.52351 27.5436 2.52351C28.9818 2.52351 30.1479 3.70439 30.1479 5.1612Z" fill="#F25321"/>
<path d="M32.648 10.1137C32.648 11.2993 31.699 12.2603 30.5286 12.2603C29.358 12.2603 28.4092 11.2993 28.4092 10.1137C28.4092 8.92827 29.358 7.9671 30.5286 7.9671C31.699 7.9671 32.648 8.92827 32.648 10.1137Z" fill="#F25321"/>
<path d="M41.6451 11.0538C41.6451 12.2394 40.6961 13.2004 39.5257 13.2004C38.3551 13.2004 37.4062 12.2394 37.4062 11.0538C37.4062 9.86838 38.3551 8.90722 39.5257 8.90722C40.6961 8.90722 41.6451 9.86838 41.6451 11.0538Z" fill="#634C9F"/>
<path d="M26.9138 10.4925C26.9138 11.2829 26.2813 11.9236 25.5008 11.9236C24.7206 11.9236 24.0879 11.2829 24.0879 10.4925C24.0879 9.70221 24.7206 9.06144 25.5008 9.06144C26.2813 9.06144 26.9138 9.70221 26.9138 10.4925Z" fill="#634C9F"/>
<path d="M35.4741 5.30146C35.4741 6.29327 34.6801 7.09735 33.7009 7.09735C32.7218 7.09735 31.9277 6.29327 31.9277 5.30146C31.9277 4.30965 32.7218 3.50556 33.7009 3.50556C34.6801 3.50556 35.4741 4.30965 35.4741 5.30146Z" fill="#634C9F"/>
<path d="M36.2214 11.0538C36.2214 11.8441 35.5889 12.4849 34.8085 12.4849C34.0282 12.4849 33.3955 11.8441 33.3955 11.0538C33.3955 10.2635 34.0282 9.62274 34.8085 9.62274C35.5889 9.62274 36.2214 10.2635 36.2214 11.0538Z" fill="#634C9F"/>
<path d="M37.8581 7.79873C37.8581 8.46509 37.3247 9.00536 36.6668 9.00536C36.0089 9.00536 35.4756 8.46509 35.4756 7.79873C35.4756 7.13236 36.0089 6.59226 36.6668 6.59226C37.3247 6.59226 37.8581 7.13236 37.8581 7.79873Z" fill="#F25321"/>
</svg>
