<svg width="27" height="26" viewBox="0 0 27 26" fill="none" xmlns="http://www.w3.org/2000/svg">
<g clip-path="url(#clip0_1_5608)">
<path d="M12.9442 11.102C12.1122 11.6393 11.2109 11.908 10.2402 11.908C9.5989 11.908 8.97923 11.7823 8.38123 11.531C7.78323 11.2797 7.25457 10.9287 6.79523 10.478C6.3359 10.0273 5.9849 9.503 5.74223 8.905C5.49957 8.307 5.37823 7.68733 5.37823 7.046C5.37823 6.04066 5.65123 5.13066 6.19723 4.316C6.74323 3.50133 7.46257 2.90766 8.35523 2.535C9.2479 2.16233 10.1969 2.07133 11.2022 2.262C12.1382 2.43533 12.9616 2.873 13.6722 3.575C14.3829 4.277 14.8292 5.109 15.0112 6.071C15.1932 7.033 15.1022 7.97333 14.7382 8.892C14.3742 9.81066 13.7762 10.5473 12.9442 11.102ZM11.7482 4.784C11.2976 4.48933 10.7949 4.342 10.2402 4.342C9.51223 4.342 8.8709 4.602 8.31623 5.122C7.79623 5.67666 7.53623 6.318 7.53623 7.046C7.53623 7.60066 7.6879 8.10333 7.99123 8.554C8.29457 9.00466 8.69757 9.334 9.20023 9.542C9.7029 9.75 10.2229 9.802 10.7602 9.698C11.2976 9.594 11.7612 9.347 12.1512 8.957C12.5412 8.567 12.7882 8.10333 12.8922 7.566C12.9962 7.02866 12.9442 6.50866 12.7362 6.006C12.5282 5.50333 12.1989 5.096 11.7482 4.784ZM3.35023 15.86C4.25157 14.9413 5.30023 14.235 6.49623 13.741C7.69223 13.247 8.94023 13 10.2402 13C11.5402 13 12.7882 13.247 13.9842 13.741C15.1802 14.235 16.2332 14.937 17.1432 15.847C18.0532 16.757 18.7552 17.81 19.2492 19.006C19.7432 20.202 19.9902 21.45 19.9902 22.75C19.9902 23.062 19.8776 23.322 19.6522 23.53C19.4269 23.738 19.1756 23.842 18.8982 23.842H13.4902C13.1956 23.842 12.9399 23.7337 12.7232 23.517C12.5066 23.3003 12.3982 23.0447 12.3982 22.75C12.3982 22.4553 12.5066 22.1997 12.7232 21.983C12.9399 21.7663 13.1956 21.658 13.4902 21.658H17.7542C17.6156 20.7567 17.3296 19.903 16.8962 19.097C16.4629 18.291 15.8996 17.5933 15.2062 17.004C14.5129 16.4147 13.7416 15.9597 12.8922 15.639C12.0429 15.3183 11.1589 15.158 10.2402 15.158C9.32157 15.158 8.43757 15.3183 7.58823 15.639C6.7389 15.9597 5.96757 16.4147 5.27423 17.004C4.5809 17.5933 4.01757 18.291 3.58423 19.097C3.1509 19.903 2.8649 20.7567 2.72623 21.658H6.99023C7.26757 21.658 7.52757 21.762 7.77023 21.97C7.97823 22.2127 8.08223 22.4727 8.08223 22.75C8.08223 23.0273 7.97823 23.2873 7.77023 23.53C7.52757 23.738 7.26757 23.842 6.99023 23.842H1.58223C1.3049 23.842 1.05357 23.738 0.828234 23.53C0.602901 23.322 0.490234 23.062 0.490234 22.75C0.490234 21.45 0.737234 20.2063 1.23123 19.019C1.72523 17.8317 2.43157 16.7787 3.35023 15.86Z" fill="#030712"/>
</g>
<defs>
<clipPath id="clip0_1_5608">
<rect width="26" height="26" fill="white" transform="matrix(1 0 0 -1 0.330078 26)"/>
</clipPath>
</defs>
</svg>
